<svg width="1440" height="593" viewBox="0 0 1440 593" fill="none" xmlns="http://www.w3.org/2000/svg" class="absolute w-full md:-top-[40rem] xl:-top-[32rem]"><line y1="69.4531" x2="1440" y2="69.4531" stroke="#F3F5F6"></line><line y1="159.977" x2="1440" y2="159.977" stroke="#F3F5F6"></line><line y1="250.508" x2="1440" y2="250.508" stroke="#F3F5F6"></line><line y1="341.031" x2="1440" y2="341.031" stroke="#F3F5F6"></line><line y1="431.555" x2="1440" y2="431.555" stroke="#F3F5F6"></line><line y1="522.086" x2="1440" y2="522.086" stroke="#F3F5F6"></line><line x1="42.6978" y1="3.51922e-08" x2="42.6977" y2="593" stroke="#F6F7F8"></line><line x1="87.9097" y1="4.6703e-08" x2="87.9097" y2="593" stroke="#F6F7F8"></line><line x1="133.122" y1="4.6703e-08" x2="133.122" y2="593" stroke="#F6F7F8"></line><line x1="178.333" y1="4.6703e-08" x2="178.333" y2="593" stroke="#F6F7F8"></line><line x1="223.545" y1="4.6703e-08" x2="223.545" y2="593" stroke="#F6F7F8"></line><line x1="268.757" y1="4.6703e-08" x2="268.757" y2="593" stroke="#F6F7F8"></line><line x1="313.969" y1="4.6703e-08" x2="313.969" y2="593" stroke="#F6F7F8"></line><line x1="359.181" y1="4.6703e-08" x2="359.181" y2="593" stroke="#F6F7F8"></line><line x1="404.393" y1="4.6703e-08" x2="404.393" y2="593" stroke="#F6F7F8"></line><line x1="449.605" y1="4.6703e-08" x2="449.605" y2="593" stroke="#F6F7F8"></line><line x1="494.817" y1="4.6703e-08" x2="494.817" y2="593" stroke="#F6F7F8"></line><line x1="540.029" y1="4.6703e-08" x2="540.029" y2="593" stroke="#F6F7F8"></line><line x1="585.241" y1="4.6703e-08" x2="585.241" y2="593" stroke="#F6F7F8"></line><line x1="630.453" y1="4.6703e-08" x2="630.453" y2="593" stroke="#F6F7F8"></line><line x1="675.665" y1="4.6703e-08" x2="675.665" y2="593" stroke="#F6F7F8"></line><line x1="720.877" y1="4.6703e-08" x2="720.877" y2="593" stroke="#F6F7F8"></line><line x1="766.089" y1="4.6703e-08" x2="766.089" y2="593" stroke="#F6F7F8"></line><line x1="811.301" y1="4.6703e-08" x2="811.301" y2="593" stroke="#F6F7F8"></line><line x1="856.513" y1="4.6703e-08" x2="856.513" y2="593" stroke="#F6F7F8"></line><line x1="901.725" y1="4.6703e-08" x2="901.725" y2="593" stroke="#F6F7F8"></line><line x1="946.937" y1="4.6703e-08" x2="946.937" y2="593" stroke="#F6F7F8"></line><line x1="992.148" y1="4.6703e-08" x2="992.148" y2="593" stroke="#F6F7F8"></line><line x1="1037.36" y1="4.6703e-08" x2="1037.36" y2="593" stroke="#F6F7F8"></line><line x1="1082.57" y1="4.6703e-08" x2="1082.57" y2="593" stroke="#F6F7F8"></line><line x1="1127.78" y1="4.6703e-08" x2="1127.78" y2="593" stroke="#F6F7F8"></line><line x1="1173" y1="4.6703e-08" x2="1173" y2="593" stroke="#F6F7F8"></line><line x1="1218.21" y1="4.6703e-08" x2="1218.21" y2="593" stroke="#F6F7F8"></line><line x1="1263.42" y1="4.6703e-08" x2="1263.42" y2="593" stroke="#F6F7F8"></line><line x1="1308.63" y1="4.6703e-08" x2="1308.63" y2="593" stroke="#F6F7F8"></line><line x1="1353.84" y1="4.6703e-08" x2="1353.84" y2="593" stroke="#F6F7F8"></line><line x1="1399.06" y1="4.6703e-08" x2="1399.06" y2="593" stroke="#F6F7F8"></line></svg>